<svg width="540" height="540" viewBox="0 0 540 540" fill="none" xmlns="http://www.w3.org/2000/svg">
<circle cx="158" cy="433" r="11" fill="#0098FF"/>
<ellipse cx="76.0001" cy="268.5" rx="10" ry="8.5" fill="#0098FF"/>
<rect x="267.264" y="417" width="23" height="23" transform="rotate(45 267.264 417)" fill="#B2C1C9"/>
<circle cx="158" cy="432" r="35" stroke="#9CDCFE" stroke-width="20"/>
<circle cx="376" cy="433" r="11" fill="#0098FF"/>
<circle cx="314" cy="347" r="11" fill="#9CDCFE"/>
<circle cx="226" cy="346" r="11" fill="#9CDCFE"/>
<circle cx="376" cy="432" r="35" stroke="#9CDCFE" stroke-width="20"/>
<mask id="path-9-inside-1_1_2" fill="white">
<path d="M325 346C325 360.587 319.205 374.576 308.891 384.891C298.576 395.205 284.587 401 270 401C255.413 401 241.424 395.205 231.109 384.891C220.795 374.576 215 360.587 215 346L236.8 346C236.8 354.805 240.298 363.25 246.524 369.476C252.75 375.703 261.195 379.2 270 379.2C278.805 379.2 287.25 375.703 293.476 369.476C299.703 363.25 303.2 354.805 303.2 346H325Z"/>
</mask>
<path d="M325 346C325 360.587 319.205 374.576 308.891 384.891C298.576 395.205 284.587 401 270 401C255.413 401 241.424 395.205 231.109 384.891C220.795 374.576 215 360.587 215 346L236.8 346C236.8 354.805 240.298 363.25 246.524 369.476C252.75 375.703 261.195 379.2 270 379.2C278.805 379.2 287.25 375.703 293.476 369.476C299.703 363.25 303.2 354.805 303.2 346H325Z" stroke="#9CDCFE" stroke-width="40" mask="url(#path-9-inside-1_1_2)"/>
<path d="M91.0001 170.5C91.0001 183.621 80.5614 194 68.0001 194C55.4388 194 45.0001 183.621 45.0001 170.5C45.0001 157.379 55.4388 147 68.0001 147C80.5614 147 91.0001 157.379 91.0001 170.5Z" stroke="#9CDCFE" stroke-width="20"/>
<circle cx="43" cy="71" r="30" stroke="#9CDCFE" stroke-width="20"/>
<circle cx="496" cy="71.0001" r="30" stroke="#9CDCFE" stroke-width="20"/>
<path d="M490 170.5C490 183.621 479.561 194 467 194C454.439 194 444 183.621 444 170.5C444 157.379 454.439 147 467 147C479.561 147 490 157.379 490 170.5Z" stroke="#9CDCFE" stroke-width="20"/>
<path d="M241 417C241 411.477 236.523 407 231 407C225.477 407 221 411.477 221 417H241ZM221 417V460H241V417H221Z" fill="#0098FF"/>
<path d="M78.0001 64.0001L460 64.0001" stroke="#9CDCFE" stroke-width="20" stroke-linecap="round"/>
<path d="M78.0001 64.0001L460 64.0001" stroke="#9CDCFE" stroke-width="20" stroke-linecap="round"/>
<path d="M113 106L418 106.994" stroke="#9CDCFE" stroke-width="20" stroke-linecap="round"/>
<path d="M113 106L418 106.994" stroke="#9CDCFE" stroke-width="20" stroke-linecap="round"/>
<path d="M129 147H192" stroke="#9CDCFE" stroke-width="20" stroke-linecap="round"/>
<path d="M129 147H192" stroke="#9CDCFE" stroke-width="20" stroke-linecap="round"/>
<path d="M11.0001 145L11.0001 176" stroke="#9CDCFE" stroke-width="20" stroke-linecap="round"/>
<path d="M11.0001 145L11.0001 176" stroke="#9CDCFE" stroke-width="20" stroke-linecap="round"/>
<path d="M519 144V175" stroke="#9CDCFE" stroke-width="20" stroke-linecap="round"/>
<path d="M519 144V175" stroke="#9CDCFE" stroke-width="20" stroke-linecap="round"/>
<path d="M342 147H405" stroke="#9CDCFE" stroke-width="20" stroke-linecap="round"/>
<path d="M342 147H405" stroke="#9CDCFE" stroke-width="20" stroke-linecap="round"/>
<path d="M389 333V360" stroke="#D8E5F0" stroke-width="20" stroke-linecap="round"/>
<path d="M389 333V360" stroke="#273C4F" stroke-width="20" stroke-linecap="round"/>
<path d="M389 333V360" stroke="#273C4F" stroke-width="20" stroke-linecap="round"/>
<path d="M389 333V360" stroke="#0098FF" stroke-width="20" stroke-linecap="round"/>
<path d="M306 147L279 147" stroke="#D8E5F0" stroke-width="20" stroke-linecap="round"/>
<path d="M306 147L279 147" stroke="#273C4F" stroke-width="20" stroke-linecap="round"/>
<path d="M306 147L279 147" stroke="#273C4F" stroke-width="20" stroke-linecap="round"/>
<path d="M306 147L279 147" stroke="#0098FF" stroke-width="20" stroke-linecap="round"/>
<path d="M133 335V362" stroke="#D8E5F0" stroke-width="20" stroke-linecap="round"/>
<path d="M133 335V362" stroke="#273C4F" stroke-width="20" stroke-linecap="round"/>
<path d="M133 335V362" stroke="#273C4F" stroke-width="20" stroke-linecap="round"/>
<path d="M133 335V362" stroke="#0098FF" stroke-width="20" stroke-linecap="round"/>
<path d="M424 327V366" stroke="#D8E5F0" stroke-width="20" stroke-linecap="round"/>
<path d="M424 327V366" stroke="#273C4F" stroke-width="20" stroke-linecap="round"/>
<path d="M424 327V366" stroke="#273C4F" stroke-width="20" stroke-linecap="round"/>
<path d="M424 327V366" stroke="#0098FF" stroke-width="20" stroke-linecap="round"/>
<path d="M97.0001 327V366" stroke="#D8E5F0" stroke-width="20" stroke-linecap="round"/>
<path d="M97.0001 327V366" stroke="#273C4F" stroke-width="20" stroke-linecap="round"/>
<path d="M97.0001 327V366" stroke="#273C4F" stroke-width="20" stroke-linecap="round"/>
<path d="M97.0001 327V366" stroke="#0098FF" stroke-width="20" stroke-linecap="round"/>
<line x1="228.145" y1="453.004" x2="275.145" y2="501.004" stroke="#0098FF" stroke-width="20"/>
<path d="M314 417C314 411.477 309.523 407 304 407C298.477 407 294 411.477 294 417H314ZM294 417V463H314V417H294Z" fill="#0098FF"/>
<path d="M307 456L260.993 501.148" stroke="#0098FF" stroke-width="20"/>
<path d="M46.5001 239.5C85.0001 240 91.407 241.348 98.5001 244.5C103 246.5 107.5 251 109 254C110.5 257 111.5 261 111.5 266.5C111.5 270.579 111.833 290.5 111.5 300" stroke="#0098FF" stroke-width="20" stroke-linecap="round"/>
<path d="M478.15 239C439.649 239.504 433.242 240.863 426.149 244.041C421.649 246.058 417.148 250.595 415.648 253.62C414.148 256.645 413.148 260.678 413.148 266.223C413.148 270.336 412.815 290.422 413.148 300" stroke="#0098FF" stroke-width="20" stroke-linecap="round"/>
<path d="M86.241 275.134L85.7301 293.907L67.5955 272.891L86.241 275.134Z" fill="#0098FF"/>
<path d="M86.241 269.134L85.7301 287.907L67.5955 266.891L86.241 269.134Z" fill="#0098FF"/>
<ellipse cx="10" cy="8.5" rx="10" ry="8.5" transform="matrix(-1 0 0 1 459.289 262)" fill="#0098FF"/>
<path d="M439.339 277.134L439.844 295.907L457.751 274.891L439.339 277.134Z" fill="#0098FF"/>
<path d="M439.339 271.134L439.844 289.907L457.751 268.891L439.339 271.134Z" fill="#0098FF"/>
<path d="M195.04 322.12C187.067 322.12 179.527 320.733 172.42 317.96C165.487 315.187 159.68 311.547 155 307.04L166.96 288.06C170.427 291.7 174.587 294.733 179.44 297.16C184.293 299.587 189.233 300.8 194.26 300.8C202.58 300.8 209.167 297.853 214.02 291.96C218.873 285.893 221.3 275.753 221.3 261.54V137H246V258.94C246 280.953 241.32 296.987 231.96 307.04C222.6 317.093 210.293 322.12 195.04 322.12ZM323.919 322.12C313.692 322.12 304.419 320.82 296.099 318.22C287.952 315.62 281.192 312.24 275.819 308.08L285.699 288.58C290.206 292.393 295.839 295.6 302.599 298.2C309.532 300.627 316.899 301.84 324.699 301.84C334.406 301.84 341.686 300.28 346.539 297.16C351.566 293.867 354.079 289.707 354.079 284.68C354.079 281.04 353.126 277.833 351.219 275.06C349.486 272.287 346.192 269.6 341.339 267C336.486 264.227 329.466 261.28 320.279 258.16C307.626 253.827 298.092 248.713 291.679 242.82C285.439 236.753 282.319 228.433 282.319 217.86C282.319 207.46 286.826 198.707 295.839 191.6C305.026 184.32 317.679 180.68 333.799 180.68C342.466 180.68 350.179 181.633 356.939 183.54C363.699 185.273 369.766 187.527 375.139 190.3L368.639 209.54C363.959 206.767 358.586 204.513 352.519 202.78C346.626 201.047 340.039 200.18 332.759 200.18C323.746 200.18 316.899 202 312.219 205.64C307.539 209.28 305.199 213.267 305.199 217.6C305.199 221.76 307.019 225.313 310.659 228.26C314.299 231.207 321.406 234.413 331.979 237.88C349.139 243.6 361.099 249.927 367.859 256.86C374.619 263.793 377.999 272.46 377.999 282.86C377.999 294.993 373.059 304.613 363.179 311.72C353.472 318.653 340.386 322.12 323.919 322.12Z" fill="white"/>
</svg>
